<svg xmlns="http://www.w3.org/2000/svg" width="70" height="70" viewBox="0 0 70 70" style="width: 100%; height: 100%;">
    <desc>Made with illustrio</desc>

    <g class="base">
        <g fill="none" fill-rule="evenodd" stroke="none" class="main-fill">

            <path fill="none"
                  d="M23.8,5.40166667 C25.2875,5.40166667 26.4775,4.21166667 26.4775,2.72416667 C26.4775,1.23666667 25.2875,0.0466666667 23.8,0.0466666667 C22.3125,0.0466666667 21.1225,1.23666667 21.1225,2.72416667 C21.1225,4.21166667 22.3125,5.40166667 23.8,5.40166667 L23.8,5.40166667 Z M28.2625,16.1116667 C24.0975,16.1116667 20.825,19.3841667 20.825,23.5491667 C20.825,27.7141667 24.0975,30.9866667 28.2625,30.9866667 C32.4275,30.9866667 35.7,27.714225 35.7,23.5491667 C35.7,19.3841083 32.4275,16.1116667 28.2625,16.1116667 L28.2625,16.1116667 Z M28.2625,28.7554167 C25.43625,28.7554167 23.05625,26.3753583 23.05625,23.5491667 C23.05625,20.7228583 25.43625,18.3429167 28.2625,18.3429167 C31.08875,18.3429167 33.46875,20.7228583 33.46875,23.5491667 C33.46875,26.3753583 31.08875,28.7554167 28.2625,28.7554167 L28.2625,28.7554167 Z M22.015,13.1366667 L28.2625,13.1366667 L28.2625,10.4591667 L23.5025,10.4591667 L20.67625,5.55041667 C20.23,4.80666667 19.48625,4.36041667 18.445,4.36041667 C17.70125,4.36041667 17.10625,4.65791667 16.66,5.10416667 L11.15625,10.6079167 C10.71,11.0541667 10.4125,11.6491667 10.4125,12.3929167 C10.4125,13.2854167 10.85875,14.1779167 11.6025,14.6241667 L16.66,17.5991667 L16.66,25.0366667 L19.3375,25.0366667 L19.3375,15.3679167 L16.065,12.8391667 L19.48625,9.41791667 L22.015,13.1366667 L22.015,13.1366667 Z M7.4375,16.1116667 C3.2725,16.1116667 0,19.3841667 0,23.5491667 C0,27.7141667 3.2725,30.9866667 7.4375,30.9866667 C11.6025,30.9866667 14.875,27.714225 14.875,23.5491667 C14.875,19.3841083 11.6025,16.1116667 7.4375,16.1116667 L7.4375,16.1116667 Z M7.4375,28.7554167 C4.61125,28.7554167 2.23125,26.3753583 2.23125,23.5491667 C2.23125,20.7228583 4.61125,18.3429167 7.4375,18.3429167 C10.26375,18.3429167 12.64375,20.7228583 12.64375,23.5491667 C12.64375,26.3753583 10.26375,28.7554167 7.4375,28.7554167 L7.4375,28.7554167 Z"
                  transform="translate(17.15 19.483)" stroke="none" class="main-fill"></path>
        </g>
    </g>
    <style>
        .main-fill {fill: #000000;}
        .main-stroke {stroke: #000000;}
        .secondary-fill {fill: #fefeff;}
        .secondary-stroke {stroke: #fefeff;}

        .main-fill--darken {fill: #000000;}
        .main-stroke--darken {stroke: #000000;}
        .secondary-fill--darken {fill: #b1b1ff;}
        .secondary-stroke--darken {stroke: #b1b1ff;}

        .main-fill--darkener {fill: #000000;}
        .main-stroke--darkener {stroke: #000000;}
        .secondary-fill--darkener {fill: #7e7eff;}
        .secondary-stroke--darkener {stroke: #7e7eff;}
    </style>
</svg>