<svg xmlns="http://www.w3.org/2000/svg" width="70" height="70" viewBox="0 0 70 70" style="width: 100%; height: 100%;"><desc>Made with illustrio</desc>
  
<g class="base"><g fill="none" fill-rule="evenodd" stroke="none" class="main-fill">
    
    
    <path fill="none" d="M0,0.149132941 L0,20.7373682 L2.13602941,20.7373682 C2.09004559,20.4687964 2.05882353,20.1946241 2.05882353,19.9138388 C2.05882353,17.2044271 4.29057259,14.9726624 7,14.9726624 C9.709427,14.9726624 11.9411765,17.2044271 11.9411765,19.9138388 C11.9411765,20.1946241 11.9099524,20.4687964 11.8639706,20.7373682 L22.7242647,20.7373682 C22.6782809,20.4687964 22.6470588,20.1946241 22.6470588,19.9138388 C22.6470588,17.2044271 24.8788079,14.9726624 27.5882353,14.9726624 C30.2976623,14.9726624 32.5294118,17.2044271 32.5294118,19.9138388 C32.5294118,20.1946241 32.4981918,20.4687964 32.4522059,20.7373682 L34.5882353,20.7373682 L34.5882353,9.61972118 L29.6470588,7.14913294 L25.1176471,0.149132941 L0,0.149132941 Z M3.29411765,2.61972118 L17.2941176,2.61972118 C17.7291985,2.61356941 18.1305147,3.00812606 18.1305147,3.44325059 C18.1305147,3.87837512 17.7291985,4.272933 17.2941176,4.26678 L3.29411765,4.26678 C2.86239018,4.26678 2.47058824,3.83146606 2.47058824,3.44325059 C2.47058824,3.05503512 2.84323653,2.61972118 3.29411765,2.61972118 Z M6.58823529,5.91383882 L17.2941176,5.91383882 C17.7291969,5.90768706 18.1305147,6.30224576 18.1305147,6.73736824 C18.1305147,7.17249071 17.7291969,7.56704776 17.2941176,7.56089765 L6.58823529,7.56089765 C6.15650782,7.56089765 5.76470588,7.12558371 5.76470588,6.73736824 C5.76470588,6.34915276 6.12597176,5.91383882 6.58823529,5.91383882 Z M13.1764706,9.20795647 L17.2941176,9.20795647 C17.7291985,9.20180471 18.1305147,9.59636135 18.1305147,10.0314859 C18.1305147,10.4666104 17.7291985,10.8611683 17.2941176,10.8550153 L13.1764706,10.8550153 C12.7447431,10.8550153 12.3529412,10.4197014 12.3529412,10.0314859 C12.3529412,9.64327041 12.725587,9.20795647 13.1764706,9.20795647 Z M7,16.6197212 C5.18070906,16.6197212 3.70588235,18.0945479 3.70588235,19.9138388 C3.70588235,21.7331298 5.18070906,23.2079565 7,23.2079565 C8.81929094,23.2079565 10.2941176,21.7331298 10.2941176,19.9138388 C10.2941176,18.0945479 8.81929094,16.6197212 7,16.6197212 Z M27.5882353,16.6197212 C25.7689444,16.6197212 24.2941176,18.0945479 24.2941176,19.9138388 C24.2941176,21.7331298 25.7689444,23.2079565 27.5882353,23.2079565 C29.4075262,23.2079565 30.8823529,21.7331298 30.8823529,19.9138388 C30.8823529,18.0945479 29.4075262,16.6197212 27.5882353,16.6197212 Z M7,18.6785447 C7.68223441,18.6785447 8.23529412,19.2316044 8.23529412,19.9138388 C8.23529412,20.5960732 7.68223441,21.1491329 7,21.1491329 C6.31776559,21.1491329 5.76470588,20.5960732 5.76470588,19.9138388 C5.76470588,19.2316044 6.31776559,18.6785447 7,18.6785447 Z M27.5882353,18.6785447 C28.2704697,18.6785447 28.8235294,19.2316044 28.8235294,19.9138388 C28.8235294,20.5960732 28.2704697,21.1491329 27.5882353,21.1491329 C26.9060009,21.1491329 26.3529412,20.5960732 26.3529412,19.9138388 C26.3529412,19.2316044 26.9060009,18.6785447 27.5882353,18.6785447 Z" transform="translate(17.706 23.321)" stroke="none" class="main-fill"></path>
  </g></g><style>
          .main-fill {fill: #000000;}
          .main-stroke {stroke: #000000;}
          .secondary-fill {fill: #fefeff;}
          .secondary-stroke {stroke: #fefeff;}

          .main-fill--darken {fill: #000000;}
          .main-stroke--darken {stroke: #000000;}
          .secondary-fill--darken {fill: #b1b1ff;}
          .secondary-stroke--darken {stroke: #b1b1ff;}

          .main-fill--darkener {fill: #000000;}
          .main-stroke--darkener {stroke: #000000;}
          .secondary-fill--darkener {fill: #7e7eff;}
          .secondary-stroke--darkener {stroke: #7e7eff;}
        </style></svg>